# xmcd CD database file
#
# Track frame offsets:
#	150
#	27444
#	29972
#	51990
#	73900
#	77000
#	94392
#	123827
#	148045
#	171245
#	178677
#	204010
#	220922
#	252200
#	276647
#
# Disc length: 4201 seconds
#
# Revision: 5
# Processed by: cddbd v1.5.2PL0 Copyright (c) Steve Scherf et al.
# Submitted via: CDex 1.70beta2
#
DISCID=eb10670f
DTITLE=Theatre Brook - TALISMAN
DYEAR=1996
DGENRE=Rock
TTITLE0=TEPID RAIN
TTITLE1=パラボラマン
TTITLE2=ドレッドライダー
TTITLE3=野蛮なローソク
TTITLE4=パラボラマン〜Reprise〜
TTITLE5=誰にも言えない
TTITLE6=命の一発
TTITLE7=One Fine Morning
TTITLE8=あふれ出すばかり(Remix)
TTITLE9=キャプテンパラボラ
TTITLE10=昨日よりちょっと(Long Version)
TTITLE11=DREAD SURFER〜BACK SPIN〜
TTITLE12=ありったけの愛(Live Version)
TTITLE13=光の粒
TTITLE14=無実の子
EXTD=YEAR: 1996
EXTT0=
EXTT1=
EXTT2=
EXTT3=
EXTT4=
EXTT5=
EXTT6=
EXTT7=
EXTT8=
EXTT9=
EXTT10=
EXTT11=
EXTT12=
EXTT13=
EXTT14=
PLAYORDER=
